<?xml version="1.0"?>
<svg xmlns="http://www.w3.org/2000/svg" height="512px" viewBox="0 0 512 512" width="512px"><g><path d="m453.332031 0h-394.664062c-32.363281 0-58.667969 26.304688-58.667969 58.667969v394.664062c0 32.363281 26.304688 58.667969 58.667969 58.667969h394.664062c32.363281 0 58.667969-26.304688 58.667969-58.667969v-394.664062c0-32.363281-26.304688-58.667969-58.667969-58.667969zm-421.332031 58.667969c0-14.699219 11.96875-26.667969 26.667969-26.667969h394.664062c1.195313 0 2.21875.535156 3.371094.683594l-424.019531 424.019531c-.148438-1.152344-.683594-2.175781-.683594-3.371094zm448 394.664062c0 14.699219-11.96875 26.667969-26.667969 26.667969h-394.664062c-1.195313 0-2.21875-.535156-3.371094-.683594l424.019531-424.019531c.148438 1.152344.683594 2.175781.683594 3.371094zm0 0" data-original="#000000" class="active-path" data-old_color="#ffffff" fill="#ffffff"/><path d="m101.332031 154.667969h96c8.832031 0 16-7.167969 16-16s-7.167969-16-16-16h-96c-8.832031 0-16 7.167969-16 16s7.167969 16 16 16zm0 0" data-original="#000000" class="active-path" data-old_color="#ffffff" fill="#ffffff"/><path d="m410.667969 346.667969h-32v-32c0-8.832031-7.167969-16-16-16s-16 7.167969-16 16v32h-32c-8.832031 0-16 7.167969-16 16s7.167969 16 16 16h32v32c0 8.832031 7.167969 16 16 16s16-7.167969 16-16v-32h32c8.832031 0 16-7.167969 16-16s-7.167969-16-16-16zm0 0" data-original="#000000" class="active-path" data-old_color="#ffffff" fill="#ffffff"/></g> </svg>
